# AST/ASF file generated using VICON BodyLanguage
# -----------------------------------------------
:version 1.10
:name VICON
:units
  mass 1.0
  length 0.45
  angle deg
:documentation
   .ast/.asf automatically generated from VICON data using
   VICON BodyBuilder and BodyLanguage model FoxedUp or BRILLIANT.MOD
:root
   order TX TY TZ RX RY RZ
   axis XYZ
   position 0 0 0  
   orientation 0 0 0 
:bonedata
  begin
     id 1 
     name lhipjoint
     direction 0.627412 -0.730575 0.26947 
     length 2.49821 
     axis 0 0 0  XYZ
  end
  begin
     id 2 
     name lfemur
     direction 0.34202 -0.939693 0  
     length 6.89165  
     axis 0 0 20  XYZ
    dof rx ry rz
    limits (-160.0 20.0)
           (-70.0 70.0)
           (-60.0 70.0)
  end
  begin
     id 3 
     name ltibia
     direction 0.34202 -0.939693 0   
     length 7.91287   
     axis 0 0 20   XYZ
    dof rx
    limits (-10.0 170.0)
  end
  begin
     id 4 
     name lfoot
     direction 0.0941675 -0.258723 0.96135   
     length 2.16919   
     axis -90 7.62852e-016 20   XYZ
    dof rx rz
    limits (-45.0 90.0)
           (-70.0 20.0)
  end
  begin
     id 5 
     name ltoes
     direction 1.5347e-011 -4.21941e-011 1   
     length 1.08535   
     axis -90 7.62852e-016 20   XYZ
    dof rx
    limits (-90.0 20.0)
  end
  begin
     id 6 
     name rhipjoint
     direction -0.614241 -0.740361 0.27308   
     length 2.46519  
     axis 0 0 0  XYZ 
  end
  begin
     id 7 
     name rfemur
     direction -0.34202 -0.939693 0   
     length 7.27512   
     axis 0 0 -20   XYZ
    dof rx ry rz
    limits (-160.0 20.0)
           (-70.0 70.0)
           (-70.0 60.0)
  end
  begin
     id 8 
     name rtibia
     direction -0.34202 -0.939693 0   
     length 7.89523   
     axis 0 0 -20   XYZ
    dof rx
    limits (-10.0 170.0)
 end
 begin
     id 9 
     name rfoot
     direction -0.0860444 -0.236405 0.967837   
     length 2.29534  
     axis -90 -7.62852e-016 -20   XYZ
    dof rx rz
    limits (-45.0 90.0)
           (-20.0 70.0)
  end
  begin
     id 10 
     name rtoes
     direction -1.53608e-011 -4.21861e-011 1   
     length 1.14915   
     axis -90 -7.62852e-016 -20   XYZ
    dof rx
    limits (-90.0 20.0)
  end
  begin
     id 11 
     name lowerback
     direction -0.00734074 0.997215 -0.0742143   
     length 2.13469   
     axis 0 0 0   XYZ
    dof rx ry rz
    limits (-20.0 45.0)
           (-30.0 30.0)
           (-30.0 30.0)
  end
  begin
     id 12 
     name upperback
     direction 0.0285728 0.99958 -0.00488656   
     length 2.13416   
     axis 0 0 0   XYZ
    dof rx ry rz
    limits (-20.0 45.0)
           (-30.0 30.0)
           (-30.0 30.0)
  end
  begin
     id 13 
     name thorax
     direction 0.0316844 0.999056 0.0297249   
     length 2.14463   
     axis 0 0 0   XYZ
    dof rx ry rz
    limits (-20.0 45.0)
           (-30.0 30.0)
           (-30.0 30.0)
  end
  begin
     id 14 
     name lowerneck
     direction -0.0281545 0.996802 0.0747864   
     length 1.79004   
     axis 0 0 0   XYZ
    dof rx ry rz
    limits (-20.0 45.0)
           (-30.0 30.0)
           (-30.0 30.0)
  end
  begin
     id 15 
     name upperneck
     direction -0.00100185 0.982732 -0.185031   
     length 1.79988   
     axis 0 0 0   XYZ
    dof rx ry rz
    limits (-20.0 45.0)
           (-30.0 30.0)
           (-30.0 30.0)
  end
  begin
     id 16
     name head
     direction 0.00403747 0.997539 -0.0700022  
     length 1.81696  
     axis 0 0 0   XYZ
    dof rx ry rz
    limits (-20.0 45.0)
           (-30.0 30.0)
           (-30.0 30.0)
  end
  begin
     id 17 
     name lclavicle
     direction 0.959882 0.242905 -0.140082  
     length 3.87755  
     axis 0 0 0   XYZ
    dof ry rz
    limits (-20.0 10.0)
           (0.0 20.0)
  end
  begin
     id 18 
     name lhumerus
     direction 1 -4.4895e-011 3.76166e-027   
     length 5.14601   
     axis 180 -30 -90   XYZ
    dof rx ry rz
    limits (-60.0 90.0)
           (-90.0 90.0)
           (-90.0 90.0)
  end
  begin
     id 19
     name lradius
     direction 1 -4.48966e-011 -3.24039e-027   
     length 3.64452   
     axis 180 -30 -90   XYZ
    dof rx
    limits (-10.0 170.0)
  end
  begin
     id 20
     name lwrist
     direction 1 -4.48999e-011 2.57119e-027   
     length 1.82226   
     axis -1.61769e-015 90 90   XYZ
    dof ry
    limits (-180.0 0.0)
 end
  begin
     id 21 
     name lhand
     direction 1 -4.48961e-011 5.13984e-027   
     length 0.56228   
     axis -3.27988e-015 90 90   XYZ
    dof rx rz
    limits (-90.0 90.0)
           (-45.0 45.0)
  end
  begin
     id 22 
     name lfingers
     direction 1 -4.48991e-011 1.02836e-026   
     length 0.453325   
     axis -6.5598e-015 90 90   XYZ
    dof rx
    limits (0.0 90.0)
  end
  begin
     id 23
     name lthumb
     direction 0.707107 -6.34956e-011 0.707107   
     length 0.650886   
     axis -90 45 2.19363e-014   XYZ
    dof rx rz
    limits (-45.0 45.0)
           (-45.0 45.0)
  end
  begin
     id 24 
     name rclavicle
     direction -0.929201 0.345171 -0.132073   
     length 3.55416  
     axis 0 0 0   XYZ 
    dof ry rz
    limits (-10.0 20.0)
           (-20.0 0.0)
  end
  begin
     id 25 
     name rhumerus
     direction -1 -4.48979e-011 4.53734e-027  
     length 5.33913   
     axis 180 30 90   XYZ
    dof rx ry rz
    limits (-90.0 60.0)
           (-90.0 90.0)
           (-90.0 90.0)
  end
  begin
     id 26 
     name rradius
     direction -1 -4.4896e-011 -2.24007e-027   
     length 3.56478   
     axis 180 30 90   XYZ
    dof rx
    limits (-10.0 170.0)
  end
  begin
     id 27 
     name rwrist
     direction -1 -4.48923e-011 2.56866e-027   
     length 1.78239   
     axis -1.61769e-015 -90 -90   XYZ
    dof ry
    limits (-180.0 0.0)
  end
  begin
     id 28
     name rhand
     direction -1 -4.48914e-011 5.13667e-027   
     length 0.857474   
     axis -3.27988e-015 -90 -90   XYZ
    dof rx rz
    limits (-90.0 90.0)
           (-45.0 45.0)
  end
  begin
     id 29
     name rfingers
     direction -1 -4.49112e-011 1.02998e-026   
     length 0.691318   
     axis -6.5598e-015 -90 -90   XYZ
    dof rx
    limits (0.0 90.0)
  end
  begin
     id 30
     name rthumb
     direction -0.707107 -6.34979e-011 0.707107   
     length 0.992598   
     axis -90 -45 -2.19363e-014   XYZ
    dof rx rz
    limits (-45.0 45.0)
           (-45.0 45.0)
  end
:hierarchy
  begin
    root lhipjoint rhipjoint lowerback
    lhipjoint lfemur
    lfemur ltibia
    ltibia lfoot
    lfoot ltoes
    rhipjoint rfemur
    rfemur rtibia
    rtibia rfoot
    rfoot rtoes
    lowerback upperback
    upperback thorax
    thorax lowerneck lclavicle rclavicle
    lowerneck upperneck
    upperneck head
    lclavicle lhumerus
    lhumerus lradius
    lradius lwrist
    lwrist lhand lthumb
    lhand lfingers
    rclavicle rhumerus
    rhumerus rradius
    rradius rwrist
    rwrist rhand rthumb
    rhand rfingers
  end

#!OML:ASF F:\VICON\USERDATA\INSTALL\Justin4\Justin4.ASF
:FULLY-SPECIFIED
:DEGREES
2175
root -7.35626 16.2885 24.0083 -4.90917 37.5106 0.162937
lowerback 13.9312 8.51067 11.9087
upperback -1.76968 13.2517 -1.56083
thorax -6.59435 6.00241 -10.4804
lowerneck -13.4318 -11.8173 -2.04036
upperneck 7.78952 -16.3109 7.20627
head 5.28184 -7.54338 1.10442
rclavicle 2.19968e-014 -1.53064e-014
rhumerus 79.0372 6.86577 -40.1913
rradius 43.8024
rwrist -30.1088
rhand 12.9026 17.8964
rfingers 7.12502
rthumb 37.8739 -367.937
lclavicle 2.19968e-014 -1.53064e-014
lhumerus -54.4443 42.6188 35.7459
lradius 116.862
lwrist 41.9353
lhand -12.675 10.7553
lfingers 7.12502
lthumb 13.4064 40.3039
rfemur 12.7171 -15.3961 18.3194
rtibia 46.0987
rfoot -17.2069 -27.1849
rtoes 17.7789
lfemur -39.5787 -12.8765 -8.51565
ltibia 51.2479
lfoot 5.32271 -22.4844
ltoes -21.147
2176
root -7.47451 16.308 24.1541 -5.25027 39.4736 -0.34376
lowerback 13.5976 8.65005 11.9217
upperback -1.83736 13.3844 -1.82066
thorax -6.38201 6.08574 -10.7104
lowerneck -13.4381 -12.5576 -1.44644
upperneck 7.0139 -17.4053 7.80117
head 5.09452 -8.03989 1.11179
rclavicle 9.80335e-014 -3.85642e-014
rhumerus 80.3421 12.2404 -42.7064
rradius 43.9242
rwrist -28.708
rhand 13.3081 18.0634
rfingers 7.12502
rthumb 38.2568 -367.665
lclavicle 9.80335e-014 -3.85642e-014
lhumerus -52.6654 40.4278 35.4508
lradius 115.294
lwrist 43.6061
lhand -12.9467 11.081
lfingers 7.12502
lthumb 13.1445 40.6467
rfemur 12.899 -15.4081 18.7507
rtibia 45.8056
rfoot -16.4165 -26.4321
rtoes 12.7915
lfemur -39.4942 -12.58 -8.38045
ltibia 50.927
lfoot 5.25724 -22.0516
ltoes -21.6213
2177
root -7.59419 16.3184 24.2918 -5.60215 41.3498 -0.859674
lowerback 13.2095 8.71426 11.661
upperback -1.61684 13.3788 -1.55616
thorax -6.04546 6.1383 -10.1833
lowerneck -13.6186 -13.2455 -2.51561
upperneck 6.26587 -18.1868 8.74798
head 5.11148 -8.40252 1.45596
rclavicle -1.95128e-013 -3.88003e-014
rhumerus 81.1507 16.6885 -42.2445
rradius 45.6724
rwrist -28.86
rhand 13.5445 18.3961
rfingers 7.12502
rthumb 38.4798 -367.271
lclavicle -1.95128e-013 -3.88003e-014
lhumerus -51.7611 39.0779 34.6108
lradius 113.255
lwrist 44.9159
lhand -11.1442 11.3069
lfingers 7.12502
lthumb 14.8816 40.7524
rfemur 12.9058 -15.3468 19.1006
rtibia 45.6599
rfoot -16.4637 -24.9495
rtoes 10.6225
lfemur -39.4118 -12.1619 -8.27474
ltibia 50.6431
lfoot 4.60519 -21.7934
ltoes -22.8409
2178
root -7.71472 16.3286 24.4232 -6.03312 43.1106 -1.64227
lowerback 12.8913 8.34073 11.324
upperback -1.38082 12.8176 -0.866878
thorax -5.97846 5.89453 -9.15207
lowerneck -13.9934 -13.503 -4.57413
upperneck 5.86852 -18.2447 9.68677
head 5.32696 -8.41685 1.97616
rclavicle -7.38174e-014 5.06901e-015
rhumerus 83.1211 22.3125 -41.4946
rradius 47.1425
rwrist -28.435
rhand 13.5576 18.606
rfingers 7.12502
rthumb 38.4922 -367.058
lclavicle -7.38174e-014 5.06901e-015
lhumerus -53.4353 39.7533 35.2512
lradius 113.376
lwrist 43.5361
lhand -9.36818 11.1706
lfingers 7.12502
lthumb 16.592 40.4813
rfemur 12.6263 -15.24 19.6213
rtibia 45.5257
rfoot -17.415 -23.3776
rtoes 17.4563
lfemur -39.5702 -11.6138 -7.91967
ltibia 50.4031
lfoot 4.4798 -21.4264
ltoes -23.1586
2179
root -7.8379 16.3321 24.5552 -6.69309 44.8792 -2.73301
lowerback 12.7709 7.92696 11.2446
upperback -1.28894 12.2711 -0.34205
thorax -6.06811 5.62878 -8.48577
lowerneck -14.3721 -13.746 -5.99274
upperneck 5.60683 -18.3648 10.3929
head 5.51261 -8.45248 2.33576
rclavicle 8.81113e-014 2.68359e-014
rhumerus 84.9968 27.8883 -40.6895
rradius 48.3387
rwrist -27.8705
rhand 13.429 18.4639
rfingers 7.12502
rthumb 38.3708 -367.233
lclavicle 8.81113e-014 2.68359e-014
lhumerus -55.7397 42.1335 40.6257
lradius 117.299
lwrist 38.7919
lhand -9.84368 10.4306
lfingers 7.12502
lthumb 16.1342 39.779
rfemur 12.3208 -15.2392 20.341
rtibia 45.3517
rfoot -17.313 -23.0937
rtoes 19.5193
lfemur -39.8729 -11.0397 -7.30827
ltibia 50.1593
lfoot 5.01774 -21.0361
ltoes -22.8828
